<svg width="1486" height="1041" fill="none" xmlns="http://www.w3.org/2000/svg"><path d="M573.091 294.867h.171c3.126-.017 6.065.407 8.579 1.127 1.72.492 3.049 1.064 4.015 1.581v113.884c0 19.883 16.118 36 36 36 283.217 0 444.034 82.436 533.534 160.806 19.09 16.709 35.08 33.367 48.43 49.21-166.34-79.321-310.411-100.044-415.224-100.044-54.871 0-98.811 5.68-129.371 11.478-15.281 2.899-27.228 5.83-35.535 8.099a279.648 279.648 0 00-9.701 2.823 165.486 165.486 0 00-3.565 1.157l-.118.04-.16.055-.104.036-.044.015-.019.007c-.01.003-.019.007 11.877 33.984l-11.896-33.977a36 36 0 00-24.104 33.977v120.167c-.973.522-2.309 1.096-4.032 1.588-2.513.716-5.452 1.138-8.579 1.12h-.206c-3.033 0-5.871-.436-8.27-1.15-2.41-.718-3.936-1.584-4.698-2.138l-.333-.239-311.244-220.817 311.328-215.34.257-.18c.824-.58 2.394-1.439 4.805-2.142l.011-.003c2.391-.698 5.199-1.122 8.196-1.124zm17.729 445.239l16.716 24.061-16.716-24.061zm829.43-11.059c-.04-.146-.09-.292-.13-.437-2.34-7.801-33.5-111.208-149.16-212.646-67.51-59.32-151.95-106.931-247-140.082-84.163-29.412-177.717-48.236-279.034-56.516v-26.312c.153-20.24-5.728-39.637-16.314-56.809-10.532-17.087-25.366-31.439-42.67-42.718-31.928-20.963-72.326-31.681-112.88-31.656-41.706-.012-83.275 11.468-115.411 33.883l-.071.049-353.486 244.46-.001.001c-11.714 8.101-21.981 18.384-29.422 30.745a.019.019 0 00-.003.005c-7.502 12.461-11.861 26.628-11.997 41.552-.136 14.931 3.97 29.185 11.285 41.78 7.254 12.492 17.385 22.917 28.999 31.157l.005.004 353.032 250.381.084.06c16.131 11.552 34.784 20.314 54.671 26.173l.004.001c19.932 5.87 41.085 8.825 62.284 8.813 40.538.027 80.916-10.667 112.859-31.582 17.286-11.265 32.103-25.59 42.64-42.637l.004-.006c10.591-17.141 16.502-36.512 16.388-56.738v-47.803a533.661 533.661 0 0143.588-1.681h.082c95.159 0 249.574 23.042 435.484 137.012 19.25 11.811 42.12 18.463 65.26 20.048l.01.001c23.18 1.585 46.9-1.894 68.05-10.468v-.001c21.02-8.522 40.11-22.382 52.46-41.531 0-.002.01-.005.01-.007 12.71-19.709 17.01-43.329 10.38-66.495z" fill="#FCCA05" stroke="#000" stroke-width="72" stroke-linejoin="round"/></svg>