<svg width="201" height="200" fill="none" xmlns="http://www.w3.org/2000/svg"><g filter="url(#filter0_d_15_2)"><path d="M107.771 106.975l-.024.032a1.652 1.652 0 00-.306.268c-.481.43-.98.755-1.473 1.136-2.783-1.723-6.895-5.068-10.03-9.04 3.895 1.07 9.521 3.336 11.833 7.604zm8.991-13.188c-.002-.067-.247-6.9 4.382-11.921 1.503-1.636 3.378-2.905 5.619-3.803-2.473 3.328-4.805 8.16-7.33 13.393-1.159 2.401-2.416 4.985-3.691 7.37.387-1.403.647-2.797.771-4.184.156-.265.263-.549.249-.855zm-6.539-15.089c2.826 6.934 5.568 16.797-.285 25.47-1.053-1.496-2.402-2.752-3.909-3.796-.002-.019.008-.037.003-.06-1.278-4.623-5.17-8.984-7.466-11.26.047-.139.102-.276.108-.422.192-5.184 1.83-18.611 6.885-24.91.891 3.6 2.576 9.862 4.664 14.978zM63.188 49.471c4.306.574 9.935.947 14.02-.79 3.823-.648 7.844 1.384 9.92 2.669.633.393 1.49.291 2.084-.285 2.892-2.84 5.638-4.658 7.553-4.98 2.12-.357 6.351.367 8.688 3.054 1.783 2.05 2.09 4.726.914 7.954-.345.948-.76 1.848-1.262 2.756a14.663 14.663 0 00-1.921 1.933c-1.311-3.205-3.339-5.418-6.08-6.559-4.293-1.783-8.962-.406-10.96.357-1.048-.867-2.169-1.658-3.446-2.274-5.25-2.54-11.156-2.843-16.621-.868-1.648.597-3.152 1.438-4.584 2.388.56-1.605 1.12-3.37 1.695-5.355zm18.217 31.623a10.981 10.981 0 01-8.583-.44c-4.34-2.093-6.129-7.346-3.993-11.702a6.516 6.516 0 013.637-3.277 6.404 6.404 0 015.026.264c2.52 1.218 3.564 4.263 2.324 6.788a3.58 3.58 0 01-1.97 1.783c-.9.327-1.877.27-2.75-.15-1.333-.645-1.91-2.31-1.26-3.64a1.61 1.61 0 011.53-.917c.9.031 1.717-.618 1.819-1.473.115-.853-.516-1.58-1.407-1.622a5.166 5.166 0 00-4.875 2.888c-1.382 2.817-.24 6.201 2.54 7.546 1.67.805 3.563.893 5.337.251a7.021 7.021 0 003.96-3.54c1.956-3.99.335-8.79-3.612-10.694-2.38-1.151-5.09-1.28-7.621-.361a10.012 10.012 0 00-5.62 5.035c-2.856 5.824-.49 12.826 5.276 15.612.09.044.19.06.283.101-6.612.159-11.23-1.318-13.694-4.46-3.749-4.773-1.708-12.146-.861-14.632 2.13-4.29 5.712-7.529 10.118-9.12 4.59-1.66 9.574-1.388 14.03.769 7.18 3.471 10.14 12.162 6.595 19.385a11.19 11.19 0 01-6.23 5.606zm-36.4-4.376c.137-4.556 2.456-7.478 4.956-9.191 1.099-.753 2.178-1.198 3.18-1.521-.981 3.891-1.767 10.287 1.951 15.035 2.38 3.041 6.214 4.834 11.398 5.411-8.384 1.015-15.087-.792-16.195-1.123a14.248 14.248 0 01-1.92-1.35c-2.294-1.973-3.458-4.483-3.37-7.261zm7.728 19.799c-1.564-2.553-2.292-5.557-2.054-7.806 5.079 1.23 19.78 3.608 33.532-5.584l.02-.013c.09-.062.145-.148.218-.218.406-.226.86-.374 1.241-.635a14.728 14.728 0 004.89-5.663 17.413 17.413 0 00-2.057-18.608c1.844-.52 4.605-.953 7.093.08 2.54 1.058 4.283 3.519 5.235 7.244-3.895 7.331-5.023 17.638-5.322 21.715-17.227-.79-30.195 9.887-32.207 11.645-1.22.51-2.441 1.009-3.624 1.472-2.397.942-4.999-.415-6.965-3.629zm14.138 3.202c3.953-3.025 14.725-10.095 28.085-9.558 1.109 1.01 4.28 4.094 6.364 7.675-4.312-1.791-8.352-2.362-8.69-2.41a1.784 1.784 0 00-1.64.698c-.384.51-.439 1.153-.144 1.663 3.051 5.262 8.309 9.946 12.184 12.574-.593.332-1.179.707-1.78.961-10.054 4.314-19.685-2.092-24.858-5.538a277.027 277.027 0 00-9.52-6.065zm5.866 20.475c1.11-1.867 2.504-3.302 4.205-4.283 3.911-2.29 8.299-1.536 9.322-1.315 1.062.347 2.164.629 3.295.845l-.883.204c-6.24 1.422-11.978 2.735-15.939 4.549z" fill="#fff"/><mask id="mask0_15_2" style="mask-type:luminance" maskUnits="userSpaceOnUse" x="43" y="44" width="86" height="78"><path d="M107.771 106.975l-.024.032a1.652 1.652 0 00-.306.268c-.481.43-.98.755-1.473 1.136-2.783-1.723-6.895-5.068-10.03-9.04 3.895 1.07 9.521 3.336 11.833 7.604zm8.991-13.188c-.002-.067-.247-6.9 4.382-11.921 1.503-1.636 3.378-2.905 5.619-3.803-2.473 3.328-4.805 8.16-7.33 13.393-1.159 2.401-2.416 4.985-3.691 7.37.387-1.403.647-2.797.771-4.184.156-.265.263-.549.249-.855zm-6.539-15.089c2.826 6.934 5.568 16.797-.285 25.47-1.053-1.496-2.402-2.752-3.909-3.796-.002-.019.008-.037.003-.06-1.278-4.623-5.17-8.984-7.466-11.26.047-.139.102-.276.108-.422.192-5.184 1.83-18.611 6.885-24.91.891 3.6 2.576 9.862 4.664 14.978zM63.188 49.471c4.306.574 9.935.947 14.02-.79 3.823-.648 7.844 1.384 9.92 2.669.633.393 1.49.291 2.084-.285 2.892-2.84 5.638-4.658 7.553-4.98 2.12-.357 6.351.367 8.688 3.054 1.783 2.05 2.09 4.726.914 7.954-.345.948-.76 1.848-1.262 2.756a14.663 14.663 0 00-1.921 1.933c-1.311-3.205-3.339-5.418-6.08-6.559-4.293-1.783-8.962-.406-10.96.357-1.048-.867-2.169-1.658-3.446-2.274-5.25-2.54-11.156-2.843-16.621-.868-1.648.597-3.152 1.438-4.584 2.388.56-1.605 1.12-3.37 1.695-5.355zm18.217 31.623a10.981 10.981 0 01-8.583-.44c-4.34-2.093-6.129-7.346-3.993-11.702a6.516 6.516 0 013.637-3.277 6.404 6.404 0 015.026.264c2.52 1.218 3.564 4.263 2.324 6.788a3.58 3.58 0 01-1.97 1.783c-.9.327-1.877.27-2.75-.15-1.333-.645-1.91-2.31-1.26-3.64a1.61 1.61 0 011.53-.917c.9.031 1.717-.618 1.819-1.473.115-.853-.516-1.58-1.407-1.622a5.166 5.166 0 00-4.875 2.888c-1.382 2.817-.24 6.201 2.54 7.546 1.67.805 3.563.893 5.337.251a7.021 7.021 0 003.96-3.54c1.956-3.99.335-8.79-3.612-10.694-2.38-1.151-5.09-1.28-7.621-.361a10.012 10.012 0 00-5.62 5.035c-2.856 5.824-.49 12.826 5.276 15.612.09.044.19.06.283.101-6.612.159-11.23-1.318-13.694-4.46-3.749-4.773-1.708-12.146-.861-14.632 2.13-4.29 5.712-7.529 10.118-9.12 4.59-1.66 9.574-1.388 14.03.769 7.18 3.471 10.14 12.162 6.595 19.385a11.19 11.19 0 01-6.23 5.606zm-36.4-4.376c.137-4.556 2.456-7.478 4.956-9.191 1.099-.753 2.178-1.198 3.18-1.521-.981 3.891-1.767 10.287 1.951 15.035 2.38 3.041 6.214 4.834 11.398 5.411-8.384 1.015-15.087-.792-16.195-1.123a14.248 14.248 0 01-1.92-1.35c-2.294-1.973-3.458-4.483-3.37-7.261zm7.728 19.799c-1.564-2.553-2.292-5.557-2.054-7.806 5.079 1.23 19.78 3.608 33.532-5.584l.02-.013c.09-.062.145-.148.218-.218.406-.226.86-.374 1.241-.635a14.728 14.728 0 004.89-5.663 17.413 17.413 0 00-2.057-18.608c1.844-.52 4.605-.953 7.093.08 2.54 1.058 4.283 3.519 5.235 7.244-3.895 7.331-5.023 17.638-5.322 21.715-17.227-.79-30.195 9.887-32.207 11.645-1.22.51-2.441 1.009-3.624 1.472-2.397.942-4.999-.415-6.965-3.629zm14.138 3.202c3.953-3.025 14.725-10.095 28.085-9.558 1.109 1.01 4.28 4.094 6.364 7.675-4.312-1.791-8.352-2.362-8.69-2.41a1.784 1.784 0 00-1.64.698c-.384.51-.439 1.153-.144 1.663 3.051 5.262 8.309 9.946 12.184 12.574-.593.332-1.179.707-1.78.961-10.054 4.314-19.685-2.092-24.858-5.538a277.027 277.027 0 00-9.52-6.065zm5.866 20.475c1.11-1.867 2.504-3.302 4.205-4.283 3.911-2.29 8.299-1.536 9.322-1.315 1.062.347 2.164.629 3.295.845l-.883.204c-6.24 1.422-11.978 2.735-15.939 4.549z" fill="#fff" stroke="red" stroke-width="3" stroke-linejoin="round"/></mask><g mask="url(#mask0_15_2)"><path d="M61.747 49.054a1.5 1.5 0 011.64-1.07c4.32.576 9.568.875 13.235-.683a1.57 1.57 0 01.335-.098c2.242-.38 4.468.033 6.345.666 1.887.636 3.518 1.526 4.616 2.205l.004.002c.003.003.023.014.067.008a.323.323 0 00.177-.094c1.495-1.467 2.977-2.697 4.362-3.611 1.363-.9 2.733-1.562 3.988-1.774h0c1.327-.223 3.147-.096 4.932.426 1.797.525 3.724 1.5 5.137 3.123h0c2.239 2.575 2.496 5.87 1.192 9.453h0a20.847 20.847 0 01-1.359 2.969 1.52 1.52 0 01-.354.427 13.169 13.169 0 00-1.725 1.736 1.5 1.5 0 01-2.543-.389c-1.191-2.911-2.965-4.783-5.267-5.742l-34.782-7.554zm0 0a103.529 103.529 0 01-1.67 5.278 1.5 1.5 0 001.968 1.888m-.298-7.166l.298 7.166m24.635.761a1.5 1.5 0 01-1.493-.245c-.988-.82-2.007-1.532-3.14-2.079h-.002c-4.886-2.364-10.373-2.646-15.458-.809a16.92 16.92 0 00-2.043.905 19.42 19.42 0 011.955-.83c4.976-1.799 10.379-1.5 15.192.83l4.989 2.228zm0 0c1.928-.736 6.119-1.922 9.848-.373l-9.849.373zm-24.635-.76c-2.734 1.894-4.967 4.483-6.498 7.565a1.51 1.51 0 00-.076.184c-.445 1.307-1.213 3.918-1.37 6.862-.157 2.925.278 6.388 2.471 9.18 2.91 3.71 8.145 5.196 14.91 5.034a1.5 1.5 0 00.567-2.873 2.32 2.32 0 00-.287-.105c-4.961-2.434-7.017-8.5-4.528-13.574l.001-.001a8.512 8.512 0 014.781-4.284l.002-.001c2.159-.783 4.45-.67 6.457.301h.001c3.18 1.535 4.516 5.422 2.916 8.684l-.001.003a5.521 5.521 0 01-3.117 2.785l-.004.002c-1.403.507-2.877.434-4.174-.191-2.013-.974-2.871-3.446-1.847-5.535a3.667 3.667 0 013.414-2.053.333.333 0 01-.24.1h-.004l-.052 1.499M62.045 56.22l16.1 8.369h.001l.002.001-.599 1.23c.149.113.286.239.41.377a5.06 5.06 0 011.857 6.53 3.58 3.58 0 01-1.97 1.783c-.9.327-1.877.27-2.75-.15-1.333-.645-1.91-2.31-1.26-3.64a1.61 1.61 0 011.53-.917m0 0c.9.031 1.717-.618 1.819-1.473l-1.818 1.473zm-2.544 10.852c-4.34-2.094-6.129-7.347-3.993-11.703a6.516 6.516 0 015.651-3.665l-2.526-1.022h-.001a8.015 8.015 0 00-4.471 4.027m5.34 12.363l-.653 1.35h.001m.652-1.35l-.652 1.35m.652-1.35a10.981 10.981 0 008.583.439 11.19 11.19 0 006.229-5.606c3.545-7.223.584-15.914-6.596-19.385l.654-1.35c7.938 3.838 11.195 13.436 7.289 21.395a12.692 12.692 0 01-4.44 5.04c.147-.07.235-.119.302-.164a13.227 13.227 0 004.39-5.087 15.913 15.913 0 00-1.878-17.006 1.5 1.5 0 01.76-2.384c1.95-.55 5.116-1.091 8.077.139h0c3.144 1.308 5.098 4.286 6.113 8.256.092.363.046.746-.129 1.076-3.734 7.028-4.853 17.052-5.151 21.121a1.5 1.5 0 01-1.565 1.389c-16.617-.763-29.201 9.572-31.15 11.275a1.5 1.5 0 01-.41.255 173.465 173.465 0 01-3.654 1.484L83.34 81.885m-11.169.12c-5.1-2.46-7.185-8.621-4.688-13.713m4.688 13.714a12.48 12.48 0 009.745.499l.004-.002c.488-.178.963-.385 1.42-.618M67.483 68.292s0 0 0 0l1.346.66-1.346-.66zM83.34 81.885l-.014.014-.036.04c-13.205 8.773-27.337 6.505-32.258 5.314a1.5 1.5 0 00-1.844 1.3c-.28 2.638.564 5.969 2.265 8.747 2.114 3.455 5.374 5.584 8.791 4.243L83.34 81.885zm-12.831 2.91l-.002-.001.604-1.241-.602 1.242zm0 0a2.165 2.165 0 00.354.136l.03.009.007.002h0-.001a.66.66 0 01-.056-.022l.603-1.374m-.937 1.249l.937-1.249m0 0l-.016-.65v-.004l-.02-.845c-.874.02-1.703.012-2.488-.025a11.452 11.452 0 002.241 1.423c.048.023.099.039.15.055.044.013.09.027.133.046zm11.927-1.663h0s0 0 0 0zm0 0h0l.009-.006h0l-.009.006zm-18 17.917a1.5 1.5 0 01.587-1.273c4.043-3.094 15.166-10.424 29.056-9.865a1.5 1.5 0 01.95.39c1.144 1.041 4.451 4.248 6.65 8.03a1.5 1.5 0 01-1.872 2.14c-4.093-1.701-7.947-2.257-8.312-2.309a.287.287 0 00-.243.112L65.373 99.8zm0 0c.027.495.297.944.72 1.201m-.72-1.201l.72 1.201m0 0a277.671 277.671 0 019.47 6.032l.026.019c2.575 1.715 6.412 4.27 10.91 5.828 4.542 1.573 9.867 2.169 15.338-.178.539-.228 1.1-.554 1.55-.816.137-.08.264-.154.376-.217.454-.254.743-.725.765-1.245m-38.434-9.423l38.434 9.423m0 0a1.5 1.5 0 00-.656-1.305m.656 1.305l-.656-1.305m0 0c-3.755-2.546-8.805-7.063-11.71-12.051m11.71 12.051l-11.71-12.051m0 0a.201.201 0 01.026-.043l-.025.043zm76.379 71.016a1.5 1.5 0 002.081-2.156l-58.272-61.179-2.172 2.07 33.691 35.37-36.271-32.173-1.991 2.245 62.934 55.823zm-59.574-60.204c.354-.467.404-1.1.123-1.619-1.341-2.477-3.59-4.285-5.904-5.593-2.325-1.315-4.832-2.189-6.85-2.744a1.5 1.5 0 00-1.576 2.375c3.255 4.125 7.504 7.583 10.418 9.387a1.5 1.5 0 001.705-.087c.107-.082.238-.178.383-.285a15.49 15.49 0 001.174-.921c.045-.039.087-.081.126-.126l.004-.004a1.51 1.51 0 00.372-.349l.021-.028.004-.006zm6.294-14.076a1.498 1.498 0 001.803 5.73c1.292-2.417 2.561-5.026 3.72-7.426h0c1.17-2.427 4.386-6.634 7.757-10.79a545.183 545.183 0 014.055-4.921c1.72-2.07 3.162-3.805 3.888-4.782a1.5 1.5 0 00-1.762-2.287c-1.229.492-4.54 2.226-7.659 3.994a107.032 107.032 0 00-4.42 2.627 34.96 34.96 0 00-1.685 1.13c-.448.323-.885.667-1.183.99-2.625 2.848-3.711 6.875-4.176 10.005a33.83 33.83 0 00-.346 4.057c-.022.93.003 1.562.008 1.673zm-3.649-15.672h0c-2.045-5.012-3.71-11.188-4.597-14.772a1.5 1.5 0 00-2.626-.578c-2.753 3.43-4.484 8.646-5.56 13.486-1.074 4.828-1.543 9.514-1.65 12.205l-.01.03-.021.06a1.5 1.5 0 00.362 1.553c2.252 2.234 5.815 6.275 7.028 10.426.049.43.281.817.637 1.064 1.39.962 2.602 2.099 3.536 3.425a1.498 1.498 0 002.47-.024c6.316-9.358 3.275-19.897.431-26.875zm-28.38 3.871s0 0 0 0h0zm-11.413.093l-.003-.001.003.001zM54.596 66.373a1.5 1.5 0 00-1.915-1.795c-1.09.352-2.313.852-3.568 1.712-2.816 1.93-5.452 5.26-5.608 10.381-.103 3.275 1.289 6.207 3.893 8.445l.006.005a15.722 15.722 0 002.12 1.495 1.5 1.5 0 00.341.15c1.215.363 8.14 2.225 16.806 1.175a1.5 1.5 0 00-.015-2.98c-4.94-.55-8.333-2.226-10.383-4.845h0c-3.255-4.155-2.642-9.917-1.677-13.743zm7.852 59.506a1.5 1.5 0 001.914 2.13c.888-.406 2.373-1.14 4.185-2.034 2.169-1.07 4.806-2.372 7.446-3.621 4.994-2.362 10.086-4.579 13.016-5.246l.01-.002.533-.124.346-.08a1.5 1.5 0 00-.058-2.935 25.058 25.058 0 01-3.11-.797c-.049-.016-.1-.03-.15-.041a5.495 5.495 0 00-.943-.088c-.35-.01-.774-.006-1.251.011-.955.035-2.158.128-3.453.302-2.534.34-5.63 1.017-7.852 2.318-.567.328-1.442 1.031-2.362 1.822a90.05 90.05 0 00-3.187 2.893 81.145 81.145 0 00-3.08 3.068c-.85.902-1.63 1.793-2.004 2.424z" fill="#fff" stroke="red" stroke-width="3" stroke-linejoin="round"/></g></g><g filter="url(#filter1_d_15_2)"><path d="M186.691 62.075l-2.585-2.004c-.535-.415-1.414-.418-1.953-.006l-1.857 1.421-13.237 10.13 11.028-16.379a4.351 4.351 0 00.619-3.555c-.318-1.213-1.152-2.26-2.315-2.906l-3.775-2.099a5.431 5.431 0 00-2.638-.677c-1.521 0-3.017.623-4.015 1.791l-53.401 62.487c-.957 1.12-1.301 2.577-.947 3.959l-6.541 6.189-1.374-.196c-11.694 9.184-14.644 10.241-20.388 12.002a25.841 25.841 0 01-7.64 1.128c-4.56 0-8.49-1.099-11.575-1.713a20.015 20.015 0 00-3.904-.406c-3.403 0-5.806 1.015-7.21 2.118-3.324 2.611-7.803 10.225-7.884 17.366l-.002-.003v.038l-.002.121c-.015.913-.297 5.59-4.279 8.257-1.729 1.157-4.084 1.51-6.312 1.51-3.476 0-6.644-.858-6.644-.858l-.86 1.303s3.418 3.426 9.686 3.426c1.505 0 3.175-.198 5.002-.688 5.749-1.542 8.023-1.842 8.922-1.842.23 0 .37.02.455.043.046.028.092.053.136.079 2.049 1.234 4.223 1.711 6.356 1.711 7.198 0 13.934-5.423 13.934-5.423l36.426-32.368-.274-.54 4.139-1.988a23.686 23.686 0 01-1.538 5.287 4.33 4.33 0 00.496 4.271l-26.559 35.181s-9.808 14.463 2.294 21.188c2.195 1.221 4.61 1.731 7.075 1.731 8.678 0 17.984-6.322 20.563-10.23 1.29-1.955 2.112-5.525.033-10.344-1.77-4.101-5.065-9.8-3.754-17.306.868-4.967 1.49-7.769 7.514-17.219.297.048.594.081.889.081 1.655 0 3.244-.742 4.21-2.04l20.787-27.936c.043-.059.086-.119.127-.179l3.773-5.605 37.506-35.235 1.577-1.48c.489-.462.452-1.178-.084-1.593zM67.044 155.472c-1.646 1.293-5.496 3.132-9.131 3.132-2.045 0-4.023-.582-5.503-2.17-5.603-6.009.407-14.897 3.361-17.217 1.4-1.101 3.83-2.134 6.53-2.135 2.5 0 5.234.886 7.603 3.426 1.962 2.104 7.15 7.101-2.86 14.964zm11.046-9.449c-.188-3.821-2.473-6.568-3.804-8.012.455.018.917.028 1.386.028 3.18 0 6.294-.461 9.256-1.369 2.248-.689 4.148-1.305 6.22-2.25L78.09 146.023zm28.674.522c-.678 2.029-1.031 3.848-1.406 5.995-.667 3.816-.342 7.245.384 10.234-1.573-.874-4.286-2.278-7.836-2.278-.594 0-1.181.038-1.76.115l10.618-14.066zm.417 32.789c-1.536 2.328-6.982 6.941-12.724 6.941a9.765 9.765 0 01-4.813-1.237c-5.283-2.935-3.025-10.494-1.313-13.09 3.498-5.301 6.833-6.774 9.575-6.774 2.482 0 4.478 1.205 5.675 1.871 6.328 3.516 5.395 9.567 3.6 12.289z" fill="#F0C061"/></g><path d="M107 108.673l4.193-5.673 6.027 6.452 3.407 6.451 3.407 6.452 5.11 6.451 5.11 4.839 27.254 24.194-30.661-20.968-8.516-6.452-5.111-6.451L107 108.673z" fill="#fff"/><path d="M126 105l-.5 3.5 3.5 2 3.5-2V105l-3.5-2-3 1.5" stroke="#fff"/><defs><filter id="filter0_d_15_2" x="39.5" y="44.5" width="92.763" height="85.194" filterUnits="userSpaceOnUse" color-interpolation-filters="sRGB"><feFlood flood-opacity="0" result="BackgroundImageFix"/><feColorMatrix in="SourceAlpha" values="0 0 0 0 0 0 0 0 0 0 0 0 0 0 0 0 0 0 127 0" result="hardAlpha"/><feOffset dy="4"/><feGaussianBlur stdDeviation="2"/><feComposite in2="hardAlpha" operator="out"/><feColorMatrix values="0 0 0 0 0 0 0 0 0 0 0 0 0 0 0 0 0 0 0.25 0"/><feBlend in2="BackgroundImageFix" result="effect1_dropShadow_15_2"/><feBlend in="SourceGraphic" in2="effect1_dropShadow_15_2" result="shape"/></filter><filter id="filter1_d_15_2" x="27" y="46" width="163.119" height="148.161" filterUnits="userSpaceOnUse" color-interpolation-filters="sRGB"><feFlood flood-opacity="0" result="BackgroundImageFix"/><feColorMatrix in="SourceAlpha" values="0 0 0 0 0 0 0 0 0 0 0 0 0 0 0 0 0 0 127 0" result="hardAlpha"/><feOffset dx="3" dy="3"/><feComposite in2="hardAlpha" operator="out"/><feColorMatrix values="0 0 0 0 0.694118 0 0 0 0 0.0901961 0 0 0 0 0.0196078 0 0 0 1 0"/><feBlend in2="BackgroundImageFix" result="effect1_dropShadow_15_2"/><feBlend in="SourceGraphic" in2="effect1_dropShadow_15_2" result="shape"/></filter></defs></svg>