<svg width="32" height="32" fill="none" xmlns="http://www.w3.org/2000/svg"><g clip-path="url(#clip0_2_2)" fill="#FCCA05"><path d="M16.75 14.725l14.887 14.802a1.492 1.492 0 01-.079 2.034 1.513 1.513 0 01-2.047.079L15.846 18.066 2.573 31.25a1.514 1.514 0 01-2.457-.487 1.49 1.49 0 01.33-1.64l14.495-14.398a1.286 1.286 0 011.81 0z"/><path d="M16.75.371l14.887 14.803a1.492 1.492 0 01-.079 2.034 1.512 1.512 0 01-2.047.079L15.846 3.713 2.573 16.897a1.513 1.513 0 01-2.127 0 1.493 1.493 0 010-2.112L14.941.37a1.286 1.286 0 011.81 0z"/></g><defs><clipPath id="clip0_2_2"><path fill="#fff" d="M0 0h32v32H0z"/></clipPath></defs></svg>