<svg width="28" height="28" viewBox="0 0 28 28" fill="none" xmlns="http://www.w3.org/2000/svg">
<path d="M24 7C24 6.44771 23.5523 6 23 6H4C3.4477 6 3 6.44771 3 7C3 7.55229 3.4477 8 4 8H23C23.5523 8 24 7.55229 24 7Z" fill="white"/>
<path d="M24 13.9998C24 13.4475 23.5523 12.9997 23 12.9997L12 13C11.4477 13 11 13.4477 11 14C11 14.5523 11.4477 15 12 15L23 14.9998C23.5523 14.9998 24 14.552 24 13.9998Z" fill="white"/>
<path d="M23 19.9998C23.5523 19.9998 24 20.4475 24 20.9998C24 21.552 23.5523 21.9997 23 21.9997H6C5.4477 21.9997 5 21.552 5 20.9998C5 20.4475 5.4477 19.9998 6 19.9998H23Z" fill="white"/>
</svg>
