<svg width="32" height="32" viewBox="0 0 32 32" fill="none" xmlns="http://www.w3.org/2000/svg">
<g clip-path="url(#clip0_2_2)">
<path d="M16.7506 14.7246L31.6373 29.5272C31.8844 29.8138 32.0135 30.1825 31.9989 30.5596C31.9842 30.9367 31.8268 31.2943 31.5582 31.5612C31.2896 31.828 30.9295 31.9843 30.5499 31.9989C30.1703 32.0134 29.7992 31.8852 29.5107 31.6397L15.8457 18.0657L2.57282 31.2502C2.29022 31.5292 1.90795 31.6859 1.50948 31.6859C1.11102 31.6859 0.72874 31.5292 0.446146 31.2502C0.304777 31.1109 0.192571 30.9452 0.115997 30.7626C0.0394241 30.5801 0 30.3842 0 30.1864C0 29.9887 0.0394241 29.7928 0.115997 29.6103C0.192571 29.4277 0.304777 29.262 0.446146 29.1227L14.9407 14.7246C15.181 14.4867 15.5064 14.3531 15.8457 14.3531C16.1849 14.3531 16.5103 14.4867 16.7506 14.7246Z" fill="#FCCA05"/>
<path d="M16.7506 0.371444L31.6373 15.1741C31.8844 15.4607 32.0135 15.8294 31.9989 16.2064C31.9842 16.5835 31.8269 16.9412 31.5582 17.208C31.2896 17.4749 30.9295 17.6312 30.5499 17.6457C30.1703 17.6603 29.7992 17.532 29.5107 17.2866L15.8457 3.71252L2.57282 16.897C2.29023 17.1761 1.90795 17.3327 1.50948 17.3327C1.11102 17.3327 0.728743 17.1761 0.446149 16.897C0.165231 16.6163 0.0075531 16.2366 0.0075531 15.8408C0.0075531 15.445 0.165231 15.0652 0.446149 14.7845L14.9407 0.371444C15.181 0.133568 15.5064 0 15.8457 0C16.1849 0 16.5103 0.133568 16.7506 0.371444Z" fill="#FCCA05"/>
</g>
<defs>
<clipPath id="clip0_2_2">
<rect width="32" height="32" fill="white"/>
</clipPath>
</defs>
</svg>
