<svg width="1486" height="1041" viewBox="0 0 1486 1041" fill="none" xmlns="http://www.w3.org/2000/svg">
<path d="M573.091 294.867C573.148 294.867 573.205 294.867 573.262 294.867C576.388 294.85 579.327 295.274 581.841 295.994C583.561 296.486 584.89 297.058 585.856 297.575V411.459C585.856 431.342 601.974 447.459 621.856 447.459C905.073 447.459 1065.89 529.895 1155.39 608.265C1174.48 624.974 1190.47 641.632 1203.82 657.475C1037.48 578.154 893.409 557.431 788.596 557.431C733.725 557.431 689.785 563.111 659.225 568.909C643.944 571.808 631.997 574.739 623.69 577.008C619.536 578.142 616.29 579.112 613.989 579.831C612.839 580.19 611.925 580.487 611.252 580.71C610.916 580.821 610.639 580.914 610.424 580.988L610.306 581.028C610.247 581.048 610.194 581.066 610.146 581.083L610.042 581.119L609.998 581.134L609.979 581.141C609.969 581.144 609.96 581.148 621.856 615.125L609.96 581.148C595.523 586.202 585.856 599.829 585.856 615.125V735.292C584.883 735.814 583.547 736.388 581.824 736.88C579.311 737.596 576.372 738.018 573.245 738C573.176 738 573.107 738 573.039 738C570.006 738 567.168 737.564 564.769 736.85C562.359 736.132 560.833 735.266 560.071 734.712C559.961 734.632 559.849 734.552 559.738 734.473L248.494 513.656L559.822 298.316C559.908 298.256 559.994 298.196 560.079 298.136C560.903 297.556 562.473 296.697 564.884 295.994L564.895 295.991C567.286 295.293 570.094 294.869 573.091 294.867ZM590.82 740.106L607.536 764.167L590.82 740.106ZM1420.25 729.047C1420.21 728.901 1420.16 728.755 1420.12 728.61C1417.78 720.809 1386.62 617.402 1270.96 515.964C1203.45 456.644 1119.01 409.033 1023.96 375.882C939.797 346.47 846.243 327.646 744.926 319.366V293.054C745.079 272.814 739.198 253.417 728.612 236.245C718.08 219.158 703.246 204.806 685.942 193.527C654.014 172.564 613.616 161.846 573.062 161.871C531.356 161.859 489.787 173.339 457.651 195.754C457.627 195.77 457.603 195.787 457.58 195.803L104.094 440.263C104.094 440.264 104.093 440.264 104.093 440.264C92.3794 448.365 82.112 458.648 74.6708 471.009C74.6698 471.01 74.6689 471.012 74.668 471.014C67.1656 483.475 62.8069 497.642 62.6712 512.566C62.5354 527.497 66.6402 541.751 73.9558 554.346C81.21 566.838 91.3412 577.263 102.955 585.503L102.96 585.507L455.992 835.888C456.02 835.908 456.048 835.928 456.076 835.948C472.207 847.5 490.86 856.262 510.747 862.121L510.751 862.122C530.683 867.992 551.836 870.947 573.035 870.935C613.573 870.962 653.951 860.268 685.894 839.353C703.18 828.088 717.997 813.763 728.534 796.716L728.538 796.71C739.129 779.569 745.04 760.198 744.926 739.972V692.169C759.38 691.017 773.934 690.455 788.514 690.488L788.596 690.488C883.755 690.488 1038.17 713.53 1224.08 827.5C1243.33 839.311 1266.2 845.963 1289.34 847.548L1289.35 847.549C1312.53 849.134 1336.25 845.655 1357.4 837.081L1357.4 837.08C1378.42 828.558 1397.51 814.698 1409.86 795.549C1409.86 795.547 1409.87 795.544 1409.87 795.542C1422.58 775.833 1426.88 752.213 1420.25 729.047Z" fill="#FCCA05" stroke="black" stroke-width="72" stroke-linejoin="round"/>
</svg>
