<svg width="1486" height="1041" viewBox="0 0 1486 1041" fill="none" xmlns="http://www.w3.org/2000/svg">
<path d="M912.909 294.867C912.852 294.867 912.795 294.867 912.738 294.867C909.612 294.85 906.673 295.274 904.158 295.994C902.439 296.486 901.11 297.058 900.144 297.575V411.459C900.144 431.342 884.026 447.459 864.144 447.459C580.927 447.459 420.106 529.895 330.606 608.265C311.524 624.974 295.529 641.632 282.178 657.475C448.517 578.154 592.591 557.431 697.404 557.431C752.275 557.431 796.215 563.111 826.775 568.909C842.056 571.808 854.003 574.739 862.31 577.008C866.464 578.142 869.71 579.112 872.011 579.831C873.161 580.19 874.075 580.487 874.748 580.71C875.084 580.821 875.361 580.914 875.576 580.988L875.694 581.028C875.753 581.048 875.806 581.066 875.854 581.083L875.958 581.119L876.002 581.134L876.021 581.141C876.031 581.144 876.04 581.148 864.144 615.125L876.04 581.148C890.477 586.202 900.144 599.829 900.144 615.125V735.292C901.117 735.814 902.453 736.388 904.176 736.88C906.689 737.596 909.628 738.018 912.755 738C912.824 738 912.893 738 912.961 738C915.994 738 918.832 737.564 921.231 736.85C923.641 736.132 925.167 735.266 925.929 734.712C926.039 734.632 926.151 734.552 926.262 734.473L1237.51 513.656L926.178 298.316C926.092 298.256 926.006 298.196 925.921 298.136C925.097 297.556 923.527 296.697 921.116 295.994L921.105 295.991C918.714 295.293 915.906 294.869 912.909 294.867ZM895.18 740.106L878.464 764.167L895.18 740.106ZM65.7512 729.047C65.7929 728.901 65.8355 728.755 65.879 728.61C68.2176 720.809 99.3828 617.402 215.043 515.964C282.555 456.644 366.994 409.033 462.038 375.882C546.203 346.47 639.757 327.646 741.074 319.366V293.054C740.921 272.814 746.802 253.417 757.388 236.245C767.92 219.158 782.754 204.806 800.058 193.527C831.986 172.564 872.384 161.846 912.938 161.871C954.644 161.859 996.213 173.339 1028.35 195.754C1028.37 195.77 1028.4 195.787 1028.42 195.803L1381.91 440.263C1381.91 440.264 1381.91 440.264 1381.91 440.264C1393.62 448.365 1403.89 458.648 1411.33 471.009C1411.33 471.01 1411.33 471.012 1411.33 471.014C1418.83 483.475 1423.19 497.642 1423.33 512.566C1423.46 527.497 1419.36 541.751 1412.04 554.346C1404.79 566.838 1394.66 577.263 1383.04 585.503L1383.04 585.507L1030.01 835.888C1029.98 835.908 1029.95 835.928 1029.92 835.948C1013.79 847.5 995.139 856.262 975.253 862.121L975.249 862.122C955.317 867.992 934.164 870.947 912.965 870.935C872.427 870.962 832.049 860.268 800.106 839.353C782.82 828.088 768.003 813.763 757.466 796.716L757.462 796.71C746.871 779.569 740.96 760.198 741.074 739.972V692.169C726.62 691.017 712.066 690.455 697.486 690.488L697.404 690.488C602.245 690.488 447.828 713.53 261.923 827.5C242.666 839.311 219.798 845.963 196.655 847.548L196.651 847.549C173.467 849.134 149.755 845.655 128.602 837.081L128.6 837.08C107.578 828.558 88.4872 814.698 76.1374 795.549C76.1357 795.547 76.1341 795.544 76.1324 795.542C63.4204 775.833 59.1245 752.213 65.7512 729.047Z" fill="#FCCA05" stroke="black" stroke-width="72" stroke-linejoin="round"/>
</svg>
