<svg width="201" height="200" viewBox="0 0 201 200" fill="none" xmlns="http://www.w3.org/2000/svg">
<g filter="url(#filter0_d_15_2)">
<path d="M107.771 106.975C107.761 106.987 107.756 106.995 107.747 107.007C107.641 107.08 107.535 107.168 107.441 107.275C106.96 107.705 106.461 108.03 105.968 108.411C103.185 106.688 99.0726 103.343 95.9376 99.3702C99.8326 100.441 105.459 102.707 107.771 106.975ZM116.762 93.787C116.76 93.7197 116.515 86.8869 121.144 81.8657C122.647 80.2304 124.522 78.961 126.763 78.0631C124.29 81.3906 121.958 86.2229 119.433 91.4562C118.274 93.8571 117.017 96.4408 115.742 98.8265C116.129 97.423 116.389 96.0285 116.513 94.6417C116.669 94.3771 116.776 94.0932 116.762 93.787ZM110.223 78.6984C113.049 85.632 115.791 95.4952 109.938 104.168C108.885 102.672 107.536 101.416 106.029 100.372C106.027 100.353 106.037 100.335 106.032 100.312C104.754 95.6889 100.862 91.3284 98.5661 89.0512C98.6135 88.9133 98.6675 88.7762 98.674 88.6297C98.866 83.4464 100.504 70.0188 105.559 63.7208C106.45 67.3193 108.135 73.5815 110.223 78.6984ZM63.1882 49.471C67.4936 50.0449 73.1227 50.4175 77.2084 48.6819C81.0305 48.0329 85.0521 50.0654 87.1289 51.3498C87.7613 51.7434 88.618 51.641 89.212 51.0655C92.1038 48.2252 94.8496 46.4069 96.765 46.0846C98.8842 45.7281 103.116 46.4525 105.453 49.1387C107.236 51.1886 107.543 53.865 106.367 57.0935C106.022 58.0413 105.607 58.9415 105.105 59.8494C104.419 60.4194 103.78 61.0628 103.184 61.7822C101.873 58.577 99.845 56.3637 97.1047 55.223C92.8114 53.4399 88.1419 54.8171 86.1442 55.5803C85.0964 54.7127 83.975 53.9218 82.6981 53.3061C77.4484 50.7666 71.5415 50.4633 66.077 52.4378C64.4285 53.0354 62.9248 53.8762 61.4931 54.8257C62.0522 53.2205 62.6139 51.4554 63.1882 49.471ZM81.4049 81.094C78.5753 82.1166 75.5306 81.9642 72.8217 80.6547C68.4815 78.5611 66.6932 73.3075 68.8286 68.9523C69.5819 67.4141 70.8749 66.2542 72.466 65.6747C74.1186 65.0745 75.9043 65.1676 77.4917 65.9394C80.012 67.157 81.0564 70.2024 79.8164 72.7272C79.4069 73.5609 78.7006 74.1924 77.8459 74.5096C76.9456 74.8366 75.9686 74.7793 75.096 74.3605C73.7626 73.715 73.1858 72.0505 73.8363 70.7199C74.1292 70.1242 74.7195 69.7722 75.3669 69.8027C76.2668 69.8342 77.0831 69.1852 77.185 68.3304C77.2997 67.4774 76.6687 66.7509 75.7784 66.7078C73.7273 66.612 71.8129 67.7449 70.9032 69.5955C69.5209 72.4126 70.6621 75.7975 73.4429 77.1421C75.1124 77.947 77.0057 78.0352 78.7803 77.3932C80.5211 76.7693 81.9334 75.5065 82.7391 73.8534C84.6963 69.8626 83.0751 65.0632 79.128 63.1588C76.7489 62.0078 74.0374 61.8799 71.507 62.7975C69.0388 63.688 67.0398 65.4793 65.8877 67.8332C63.0312 73.6571 65.3976 80.6585 71.1631 83.4452C71.2529 83.4888 71.3523 83.5051 71.446 83.5462C64.8343 83.7047 60.2165 82.2283 57.7522 79.0864C54.0031 74.3125 56.0442 66.9404 56.8906 64.4535C59.0209 60.1649 62.6034 56.9251 67.0087 55.3339C71.5988 53.674 76.5831 53.946 81.0383 56.1027C88.2182 59.5742 91.1791 68.2649 87.6336 75.488C86.3479 78.1126 84.1219 80.1017 81.4049 81.094ZM45.0046 76.7175C45.1424 72.1615 47.4613 69.2398 49.9609 67.5269C51.0596 66.774 52.1391 66.3293 53.1416 66.0058C52.1597 69.8972 51.3737 76.2934 55.0922 81.0409C57.4728 84.082 61.3055 85.8753 66.4903 86.4522C58.1056 87.4674 51.4031 85.6602 50.2949 85.3291C49.6096 84.919 48.9586 84.4748 48.3756 83.9789C46.081 82.0061 44.9166 79.496 45.0046 76.7175ZM52.7326 96.517C51.1692 93.9643 50.4409 90.9602 50.6794 88.7109C55.7578 89.9402 70.4594 92.3185 84.2109 83.1275C84.2186 83.1222 84.2303 83.114 84.2303 83.114C84.3206 83.0521 84.3764 82.9665 84.4485 82.8959C84.8546 82.6704 85.3097 82.5219 85.6904 82.2611C87.762 80.8414 89.4455 78.9031 90.5799 76.5979C93.6744 70.2898 92.6153 63.0718 88.5233 57.9902C90.3672 57.4695 93.1277 57.0369 95.6161 58.0709C98.1558 59.1277 99.8993 61.5888 100.851 65.314C96.956 72.645 95.8281 82.9523 95.5287 87.0291C78.3024 86.2387 65.3338 96.9162 63.3224 98.6737C62.1022 99.1833 60.8808 99.683 59.6976 100.146C57.3011 101.088 54.699 99.7313 52.7326 96.517ZM66.8712 99.7186C70.824 96.694 81.5956 89.6236 94.9562 90.1606C96.065 91.1708 99.2365 94.2547 101.32 97.8364C97.0084 96.0447 92.9684 95.4736 92.6303 95.4261C92.0107 95.3449 91.3726 95.6135 90.9891 96.1239C90.6059 96.6343 90.5514 97.2773 90.8456 97.7867C93.8973 103.049 99.1548 107.733 103.03 110.361C102.437 110.693 101.851 111.068 101.25 111.322C91.1957 115.636 81.565 109.23 76.3921 105.784C72.235 103.022 68.8946 100.945 66.8712 99.7186ZM72.7371 120.194C73.8464 118.327 75.2408 116.892 76.9422 115.911C80.853 113.621 85.241 114.375 86.2641 114.596C87.3256 114.943 88.4281 115.225 89.5589 115.441C89.268 115.508 88.9564 115.58 88.6759 115.645C82.4355 117.067 76.6975 118.38 72.7371 120.194Z" fill="white"/>
<mask id="mask0_15_2" style="mask-type:luminance" maskUnits="userSpaceOnUse" x="43" y="44" width="86" height="78">
<path d="M107.771 106.975C107.761 106.987 107.756 106.995 107.747 107.007C107.641 107.08 107.535 107.168 107.441 107.275C106.96 107.705 106.461 108.03 105.968 108.411C103.185 106.688 99.0726 103.343 95.9376 99.3702C99.8326 100.441 105.459 102.707 107.771 106.975ZM116.762 93.787C116.76 93.7197 116.515 86.8869 121.144 81.8657C122.647 80.2304 124.522 78.961 126.763 78.0631C124.29 81.3906 121.958 86.2229 119.433 91.4562C118.274 93.8571 117.017 96.4408 115.742 98.8265C116.129 97.423 116.389 96.0285 116.513 94.6417C116.669 94.3771 116.776 94.0932 116.762 93.787ZM110.223 78.6984C113.049 85.632 115.791 95.4952 109.938 104.168C108.885 102.672 107.536 101.416 106.029 100.372C106.027 100.353 106.037 100.335 106.032 100.312C104.754 95.6889 100.862 91.3284 98.5661 89.0512C98.6135 88.9133 98.6675 88.7762 98.674 88.6297C98.866 83.4464 100.504 70.0188 105.559 63.7208C106.45 67.3193 108.135 73.5815 110.223 78.6984ZM63.1882 49.471C67.4936 50.0449 73.1227 50.4175 77.2084 48.6819C81.0305 48.0329 85.0521 50.0654 87.1289 51.3498C87.7613 51.7434 88.618 51.641 89.212 51.0655C92.1038 48.2252 94.8496 46.4069 96.765 46.0846C98.8842 45.7281 103.116 46.4525 105.453 49.1387C107.236 51.1886 107.543 53.865 106.367 57.0935C106.022 58.0413 105.607 58.9415 105.105 59.8494C104.419 60.4194 103.78 61.0628 103.184 61.7822C101.873 58.577 99.845 56.3637 97.1047 55.223C92.8114 53.4399 88.1419 54.8171 86.1442 55.5803C85.0964 54.7127 83.975 53.9218 82.6981 53.3061C77.4484 50.7666 71.5415 50.4633 66.077 52.4378C64.4285 53.0354 62.9248 53.8762 61.4931 54.8257C62.0522 53.2205 62.6139 51.4554 63.1882 49.471ZM81.4049 81.094C78.5753 82.1166 75.5306 81.9642 72.8217 80.6547C68.4815 78.5611 66.6932 73.3075 68.8286 68.9523C69.5819 67.4141 70.8749 66.2542 72.466 65.6747C74.1186 65.0745 75.9043 65.1676 77.4917 65.9394C80.012 67.157 81.0564 70.2024 79.8164 72.7272C79.4069 73.5609 78.7006 74.1924 77.8459 74.5096C76.9456 74.8366 75.9686 74.7793 75.096 74.3605C73.7626 73.715 73.1858 72.0505 73.8363 70.7199C74.1292 70.1242 74.7195 69.7722 75.3669 69.8027C76.2668 69.8342 77.0831 69.1852 77.185 68.3304C77.2997 67.4774 76.6687 66.7509 75.7784 66.7078C73.7273 66.612 71.8129 67.7449 70.9032 69.5955C69.5209 72.4126 70.6621 75.7975 73.4429 77.1421C75.1124 77.947 77.0057 78.0352 78.7803 77.3932C80.5211 76.7693 81.9334 75.5065 82.7391 73.8534C84.6963 69.8626 83.0751 65.0632 79.128 63.1588C76.7489 62.0078 74.0374 61.8799 71.507 62.7975C69.0388 63.688 67.0398 65.4793 65.8877 67.8332C63.0312 73.6571 65.3976 80.6585 71.1631 83.4452C71.2529 83.4888 71.3523 83.5051 71.446 83.5462C64.8343 83.7047 60.2165 82.2283 57.7522 79.0864C54.0031 74.3125 56.0442 66.9404 56.8906 64.4535C59.0209 60.1649 62.6034 56.9251 67.0087 55.3339C71.5988 53.674 76.5831 53.946 81.0383 56.1027C88.2182 59.5742 91.1791 68.2649 87.6336 75.488C86.3479 78.1126 84.1219 80.1017 81.4049 81.094ZM45.0046 76.7175C45.1424 72.1615 47.4613 69.2398 49.9609 67.5269C51.0596 66.774 52.1391 66.3293 53.1416 66.0058C52.1597 69.8972 51.3737 76.2934 55.0922 81.0409C57.4728 84.082 61.3055 85.8753 66.4903 86.4522C58.1056 87.4674 51.4031 85.6602 50.2949 85.3291C49.6096 84.919 48.9586 84.4748 48.3756 83.9789C46.081 82.0061 44.9166 79.496 45.0046 76.7175ZM52.7326 96.517C51.1692 93.9643 50.4409 90.9602 50.6794 88.7109C55.7578 89.9402 70.4594 92.3185 84.2109 83.1275C84.2186 83.1222 84.2303 83.114 84.2303 83.114C84.3206 83.0521 84.3764 82.9665 84.4485 82.8959C84.8546 82.6704 85.3097 82.5219 85.6904 82.2611C87.762 80.8414 89.4455 78.9031 90.5799 76.5979C93.6744 70.2898 92.6153 63.0718 88.5233 57.9902C90.3672 57.4695 93.1277 57.0369 95.6161 58.0709C98.1558 59.1277 99.8993 61.5888 100.851 65.314C96.956 72.645 95.8281 82.9523 95.5287 87.0291C78.3024 86.2387 65.3338 96.9162 63.3224 98.6737C62.1022 99.1833 60.8808 99.683 59.6976 100.146C57.3011 101.088 54.699 99.7313 52.7326 96.517ZM66.8712 99.7186C70.824 96.694 81.5956 89.6236 94.9562 90.1606C96.065 91.1708 99.2365 94.2547 101.32 97.8364C97.0084 96.0447 92.9684 95.4736 92.6303 95.4261C92.0107 95.3449 91.3726 95.6135 90.9891 96.1239C90.6059 96.6343 90.5514 97.2773 90.8456 97.7867C93.8973 103.049 99.1548 107.733 103.03 110.361C102.437 110.693 101.851 111.068 101.25 111.322C91.1957 115.636 81.565 109.23 76.3921 105.784C72.235 103.022 68.8946 100.945 66.8712 99.7186ZM72.7371 120.194C73.8464 118.327 75.2408 116.892 76.9422 115.911C80.853 113.621 85.241 114.375 86.2641 114.596C87.3256 114.943 88.4281 115.225 89.5589 115.441C89.268 115.508 88.9564 115.58 88.6759 115.645C82.4355 117.067 76.6975 118.38 72.7371 120.194Z" fill="white" stroke="#FF0000" stroke-width="3" stroke-linejoin="round"/>
</mask>
<g mask="url(#mask0_15_2)">
<path d="M61.7473 49.054C61.9537 48.341 62.6506 47.8861 63.3864 47.9842C67.7063 48.56 72.9547 48.8591 76.6219 47.3013C76.7295 47.2556 76.842 47.2226 76.9573 47.203C79.1992 46.8223 81.4247 47.2364 83.3023 47.8694C85.1891 48.5055 86.8202 49.3952 87.9179 50.0741L87.9216 50.0763C87.9253 50.0787 87.9448 50.0897 87.9892 50.0839C88.0327 50.0782 88.0981 50.0552 88.1658 49.9905C89.6609 48.5226 91.1432 47.2934 92.5282 46.379C93.891 45.4793 95.2606 44.8167 96.5161 44.6054L96.5162 44.6054C97.8427 44.3822 99.6626 44.5087 101.448 45.0309C103.245 45.5562 105.172 46.5306 106.585 48.1541L106.585 48.1545C108.824 50.7295 109.081 54.0247 107.777 57.6067L107.777 57.6071C107.403 58.6328 106.955 59.6039 106.418 60.5756C106.327 60.7388 106.207 60.8838 106.064 61.003C105.453 61.5107 104.879 62.0876 104.339 62.7394C104.003 63.1452 103.478 63.3447 102.957 63.265C102.436 63.1852 101.995 62.8379 101.796 62.35C100.605 59.4389 98.8312 57.5668 96.5294 56.6082L61.7473 49.054ZM61.7473 49.054C61.1796 51.0157 60.6259 52.755 60.0766 54.3323C59.8648 54.9403 60.0647 55.6157 60.5732 56.0105C60.9981 56.3403 61.5592 56.413 62.0452 56.2204M61.7473 49.054L62.0452 56.2204M86.6795 56.9815C86.1742 57.1746 85.6041 57.0806 85.1875 56.7356C84.1986 55.9167 83.18 55.2038 82.0465 54.6572L82.0449 54.6564C77.159 52.2929 71.6716 52.0114 66.5873 53.8484C65.886 54.1027 65.2076 54.4074 64.544 54.7527C65.1767 54.4423 65.829 54.1652 66.4991 53.9231C71.4747 52.124 76.8778 52.4224 81.6912 54.7523L86.6795 56.9815ZM86.6795 56.9815C88.6082 56.2447 92.7986 55.0594 96.5282 56.6078L86.6795 56.9815ZM62.0452 56.2204C59.3107 58.1154 57.0782 60.7041 55.5472 63.7861C55.5176 63.8457 55.492 63.9072 55.4705 63.9702C55.0257 65.2774 54.258 67.8883 54.1002 70.832C53.9435 73.7573 54.3793 77.2197 56.572 80.0122C59.4815 83.7217 64.7173 85.2079 71.4819 85.0458C72.1846 85.0289 72.7814 84.5264 72.9176 83.8368C73.0537 83.1471 72.6927 82.4555 72.0491 82.1728C71.9706 82.1383 71.9012 82.1136 71.8507 82.0967C71.8173 82.0855 71.7837 82.0751 71.7621 82.0685C66.8007 79.6341 64.7452 73.5689 67.2344 68.4938L67.235 68.4927C68.2156 66.4891 69.9137 64.967 72.016 64.2085L72.0183 64.2076C74.1766 63.425 76.4677 63.5381 78.4747 64.5091L78.4762 64.5098C81.656 66.044 82.9919 69.9315 81.3923 73.1929L81.3907 73.1963C80.7576 74.4952 79.6489 75.4885 78.2742 75.9812L78.27 75.9827C76.8669 76.4903 75.3933 76.4167 74.0958 75.7917C72.0829 74.8184 71.225 72.3461 72.2493 70.2572C72.8899 68.9541 74.2278 68.1552 75.6628 68.2043C75.6551 68.2126 75.6457 68.2215 75.6344 68.2306C75.5749 68.2785 75.4971 68.3053 75.4234 68.3037C75.4221 68.3037 75.4207 68.3037 75.4194 68.3036L75.3669 69.8027M62.0452 56.2204L78.1443 64.5887C78.1449 64.589 78.1455 64.5893 78.1461 64.5896C78.1466 64.5899 78.1471 64.5901 78.1476 64.5904L77.5494 65.8207C77.698 65.9331 77.8355 66.0589 77.9598 66.1965C80.137 67.5468 80.9766 70.3649 79.8164 72.7272C79.4069 73.5609 78.7006 74.1924 77.8459 74.5096C76.9455 74.8366 75.9686 74.7793 75.096 74.3605C73.7626 73.715 73.1858 72.0505 73.8363 70.7199C74.1292 70.1242 74.7195 69.7722 75.3669 69.8027M75.3669 69.8027C76.2668 69.8342 77.0831 69.1852 77.185 68.3304L75.3669 69.8027ZM72.8217 80.6547C68.4815 78.5611 66.6932 73.3075 68.8286 68.9523C69.5819 67.4141 70.8749 66.2542 72.466 65.6747C73.1233 65.436 73.8018 65.3069 74.4804 65.2866L71.9539 64.2649L71.9527 64.2653C69.9964 64.9777 68.4052 66.4067 67.4818 68.2919M72.8217 80.6547L72.1689 82.0052C72.1692 82.0054 72.1696 82.0056 72.17 82.0057M72.8217 80.6547L72.17 82.0057M72.8217 80.6547C75.5306 81.9642 78.5753 82.1166 81.4049 81.094C84.1219 80.1016 86.3479 78.1126 87.6336 75.488C91.1791 68.2649 88.2182 59.5742 81.0383 56.1027L81.6918 54.7526C89.6301 58.5912 92.8868 68.1886 88.9807 76.1478C87.9633 78.2246 86.425 79.9515 84.541 81.1874C84.6875 81.1177 84.7762 81.0691 84.8426 81.0236C86.6999 79.7508 88.212 78.0117 89.2332 75.9373C92.0616 70.1716 91.0952 63.5757 87.355 58.931C87.0392 58.5387 86.9412 58.0141 87.0943 57.5343C87.2474 57.0545 87.631 56.6835 88.1157 56.5467C90.0648 55.9962 93.2314 55.4556 96.1917 56.6858L96.1923 56.686C99.3361 57.9941 101.29 60.9724 102.305 64.9425C102.397 65.3045 102.351 65.6879 102.176 66.0178C98.4417 73.0457 97.3235 83.0702 97.0246 87.139C96.9651 87.9492 96.2714 88.5648 95.4599 88.5276C78.8433 87.765 66.2588 98.0999 64.3093 99.8032C64.1877 99.9095 64.0496 99.9955 63.9005 100.058C62.6748 100.57 61.4429 101.074 60.2461 101.542L83.3395 81.8847M72.17 82.0057C67.0697 79.5454 64.9851 73.3838 67.4818 68.2919M72.17 82.0057C75.2441 83.4914 78.7075 83.6638 81.9147 82.5047L81.9195 82.503C82.4074 82.3248 82.8815 82.1181 83.3395 81.8847M67.4818 68.2919C67.4817 68.2921 67.4816 68.2924 67.4815 68.2926L68.8279 68.9519L67.4818 68.2919ZM83.3395 81.8847C83.3347 81.8898 83.3301 81.8946 83.3257 81.8993C83.3123 81.9137 83.3001 81.9272 83.2895 81.9389C70.0855 90.7123 55.9532 88.4442 51.0323 87.253C50.6122 87.1513 50.1687 87.2358 49.8154 87.4847C49.4621 87.7337 49.2334 88.123 49.1878 88.5528C48.9081 91.1908 49.7518 94.522 51.4534 97.3004C53.5668 100.755 56.8275 102.884 60.2443 101.543L83.3395 81.8847ZM70.5087 84.7948C70.5081 84.7946 70.5075 84.7943 70.5069 84.794L71.1107 83.5529L70.5087 84.7948ZM70.5087 84.7948C70.5946 84.8366 70.6716 84.8663 70.7302 84.8872C70.787 84.9073 70.8381 84.923 70.8629 84.9306L70.893 84.9399C70.8978 84.9413 70.8997 84.942 70.8997 84.942L70.8991 84.9418L70.899 84.9417C70.8962 84.9408 70.8744 84.9335 70.8428 84.9196L71.446 83.5462M70.5087 84.7948L71.446 83.5462M71.446 83.5462L71.4304 82.8958L71.4303 82.8924L71.41 82.0467C70.536 82.0676 69.7069 82.0589 68.9217 82.0217C69.5971 82.5706 70.346 83.0502 71.1631 83.4452C71.211 83.4684 71.2615 83.4839 71.3125 83.4995C71.3572 83.5132 71.4022 83.527 71.446 83.5462ZM83.3734 81.8829L83.3733 81.883L83.3729 81.8832C83.3731 81.8831 83.3733 81.883 83.3734 81.8829ZM83.3734 81.8829L83.3735 81.8829L83.3735 81.8828L83.3816 81.8772L83.3816 81.8772C83.3789 81.8791 83.3761 81.881 83.3734 81.8829ZM65.3734 99.7998C65.3465 99.3048 65.566 98.8285 65.9596 98.5273C70.0032 95.4333 81.1265 88.1035 95.0165 88.6618C95.3692 88.676 95.7055 88.8141 95.9665 89.0518C97.1095 90.0932 100.417 93.3003 102.616 97.0823C102.94 97.6388 102.873 98.3398 102.449 98.8243C102.025 99.3088 101.339 99.4687 100.744 99.2216C96.6513 97.5207 92.7973 96.9645 92.4319 96.913C92.3561 96.9045 92.2505 96.9426 92.1886 97.0246L65.3734 99.7998ZM65.3734 99.7998C65.4002 100.295 65.6698 100.744 66.0937 101.001M65.3734 99.7998L66.0937 101.001M66.0937 101.001C68.1014 102.218 71.4242 104.285 75.5621 107.033L75.5893 107.052C78.1644 108.767 82.0006 111.322 86.4995 112.88C91.0412 114.453 96.3662 115.049 101.837 112.702C102.376 112.474 102.937 112.148 103.387 111.886C103.524 111.806 103.651 111.732 103.763 111.669C104.217 111.415 104.506 110.944 104.528 110.424M66.0937 101.001L104.528 110.424M104.528 110.424C104.55 109.905 104.302 109.411 103.872 109.119M104.528 110.424L103.872 109.119M103.872 109.119C100.117 106.573 95.0666 102.056 92.1629 97.068M103.872 109.119L92.1629 97.068M92.1629 97.068C92.1671 97.0578 92.1747 97.0432 92.1883 97.025L92.1629 97.068ZM168.541 168.084C169.142 168.618 170.057 168.582 170.616 168.004C171.174 167.426 171.177 166.51 170.622 165.928L112.35 104.749L110.178 106.819L143.869 142.189L107.598 110.016L105.607 112.261L168.541 168.084ZM108.967 107.88C109.321 107.413 109.371 106.78 109.09 106.261C107.749 103.784 105.5 101.976 103.186 100.668C100.861 99.3531 98.3539 98.479 96.3353 97.9239C95.7103 97.752 95.0457 98.001 94.6875 98.5412C94.3292 99.0814 94.3585 99.7906 94.7601 100.299C98.0146 104.424 102.264 107.882 105.178 109.686C105.709 110.015 106.389 109.98 106.883 109.599C106.99 109.517 107.121 109.421 107.266 109.314C107.623 109.053 108.065 108.729 108.44 108.393C108.485 108.354 108.527 108.312 108.566 108.267C108.564 108.269 108.565 108.268 108.57 108.263C108.576 108.258 108.584 108.252 108.595 108.244C108.717 108.16 108.826 108.059 108.918 107.944C108.927 107.933 108.935 107.923 108.942 107.914C108.95 107.904 108.957 107.894 108.963 107.886L108.967 107.88ZM115.261 93.8044C115.26 93.8063 115.259 93.8084 115.258 93.8107C115.25 93.8277 115.238 93.8509 115.221 93.8811C115.108 94.0723 115.039 94.2862 115.019 94.5073C114.903 95.7982 114.661 97.1041 114.296 98.4272C114.092 99.1638 114.475 99.9357 115.185 100.219C115.894 100.503 116.704 100.208 117.064 99.5338C118.356 97.1174 119.625 94.5078 120.784 92.1083L120.784 92.108C121.954 89.6815 125.17 85.4741 128.541 81.3183C129.927 79.6096 131.336 77.9134 132.596 76.3967C134.316 74.327 135.758 72.5916 136.484 71.6147C136.884 71.0758 136.878 70.3364 136.468 69.8045C136.058 69.2726 135.345 69.0778 134.722 69.3276C133.493 69.8201 130.182 71.554 127.063 73.3216C125.484 74.2159 123.918 75.14 122.643 75.9492C122.007 76.3534 121.431 76.7366 120.958 77.0786C120.51 77.4023 120.073 77.7461 119.775 78.0697C117.15 80.9167 116.064 84.9436 115.599 88.0744C115.363 89.6688 115.279 91.0968 115.253 92.1311C115.231 93.0606 115.256 93.6932 115.261 93.8044ZM111.612 78.1322L111.612 78.1317C109.567 73.1197 107.902 66.9445 107.015 63.3604C106.878 62.8067 106.439 62.3786 105.882 62.2559C105.325 62.1332 104.746 62.337 104.389 62.7818C101.636 66.2117 99.9047 71.4281 98.8287 76.2677C97.7553 81.0957 97.2858 85.7821 97.1789 88.4734L97.1683 88.5038L97.1478 88.5628C96.9603 89.1071 97.101 89.7108 97.5098 90.1162C99.7619 92.3499 103.325 96.3906 104.538 100.542C104.587 100.972 104.819 101.359 105.175 101.606C106.565 102.568 107.777 103.705 108.711 105.031C108.995 105.435 109.459 105.673 109.952 105.668C110.446 105.663 110.905 105.416 111.181 105.007C117.497 95.6489 114.456 85.1099 111.612 78.1322ZM83.2325 82.0034C83.2321 82.0039 83.2321 82.0038 83.2326 82.0033L83.2325 82.0034ZM71.8193 82.0963L71.8159 82.0946C71.817 82.0952 71.8182 82.0957 71.8193 82.0963ZM54.596 66.3728C54.7294 65.8439 54.5653 65.2842 54.1672 64.9112C53.7692 64.5383 53.2001 64.4108 52.6809 64.5783C51.5911 64.9299 50.3678 65.4296 49.113 66.2895C46.2971 68.2191 43.6606 71.5495 43.5054 76.6711C43.4019 79.9462 44.7938 82.8776 47.3977 85.1163L47.4037 85.1214C48.0676 85.6863 48.7917 86.1776 49.5246 86.6162C49.6316 86.6802 49.7461 86.7306 49.8655 86.7663C51.0799 87.1291 58.0041 88.9907 66.6706 87.9413C67.4265 87.8498 67.9939 87.2064 67.9902 86.445C67.9866 85.6835 67.4129 85.0456 66.6561 84.9614C61.7166 84.4118 58.3231 82.7348 56.2733 80.1163L56.2731 80.116C53.0184 75.9608 53.6306 70.1988 54.596 66.3728ZM62.4478 125.879C62.1126 126.443 62.1829 127.159 62.6215 127.648C63.06 128.136 63.765 128.282 64.3617 128.009C65.2495 127.603 66.7348 126.869 68.5469 125.975C70.7157 124.905 73.3525 123.603 75.9929 122.354C80.9871 119.992 86.0786 117.775 89.009 117.108L89.0183 117.106C89.19 117.066 89.37 117.024 89.5525 116.982C89.6673 116.955 89.783 116.929 89.8982 116.902C90.5887 116.741 91.0727 116.12 91.0586 115.411C91.0445 114.702 90.5362 114.1 89.8398 113.967C88.7691 113.763 87.7287 113.497 86.7306 113.17C86.6811 113.154 86.6309 113.14 86.58 113.129C86.304 113.07 85.9527 113.049 85.6371 113.041C85.2875 113.031 84.8629 113.035 84.3858 113.052C83.4309 113.087 82.2277 113.18 80.9335 113.354C78.399 113.694 75.3035 114.371 73.0814 115.672C72.5145 116 71.639 116.703 70.719 117.494C69.7566 118.321 68.6327 119.342 67.532 120.387C66.4317 121.431 65.3428 122.511 64.4527 123.455C63.6018 124.357 62.8227 125.248 62.4478 125.879Z" fill="white" stroke="#FF0000" stroke-width="3" stroke-linejoin="round"/>
</g>
</g>
<g filter="url(#filter1_d_15_2)">
<path d="M186.691 62.0753L184.106 60.0709C183.571 59.6557 182.692 59.6527 182.153 60.0651L180.296 61.4863L167.059 71.6159L178.087 55.2375C178.802 54.176 179.025 52.8957 178.706 51.6821C178.388 50.469 177.554 49.4227 176.391 48.7758L172.616 46.6773C171.794 46.2205 170.881 46 169.978 46C168.457 46 166.961 46.6235 165.963 47.7915L112.562 110.278C111.605 111.398 111.261 112.855 111.615 114.237L105.074 120.426L103.7 120.23C92.0059 129.414 89.0559 130.471 83.3121 132.232C80.6144 133.059 78.0563 133.36 75.6719 133.36C71.1126 133.36 67.1814 132.261 64.0975 131.647C62.676 131.364 61.3739 131.241 60.1926 131.241C56.79 131.241 54.387 132.256 52.9824 133.359C49.6589 135.97 45.1795 143.584 45.0986 150.725L45.0967 150.722C45.0967 150.722 45.0967 150.738 45.0967 150.76C45.0967 150.801 45.0954 150.841 45.0954 150.881C45.0801 151.794 44.7978 156.471 40.8161 159.138C39.0872 160.295 36.7318 160.648 34.5039 160.648C31.0276 160.648 27.8603 159.79 27.8603 159.79L27 161.093C27 161.093 30.4177 164.519 36.6859 164.519C38.1912 164.519 39.8608 164.321 41.6879 163.831C47.4367 162.289 49.7105 161.989 50.6097 161.989C50.8398 161.989 50.98 162.009 51.0654 162.032C51.1112 162.06 51.1565 162.085 51.2005 162.111C53.2498 163.345 55.4242 163.822 57.5567 163.822C64.7547 163.822 71.4912 158.399 71.4912 158.399L107.917 126.031L107.643 125.491L111.782 123.503C111.499 125.17 111.019 126.962 110.244 128.79C109.721 130.02 109.791 131.397 110.434 132.579C110.525 132.747 110.63 132.906 110.74 133.061L84.1812 168.242C84.1812 168.242 74.373 182.705 86.4747 189.43C88.6697 190.651 91.0849 191.161 93.5498 191.161C102.228 191.161 111.534 184.839 114.113 180.931C115.403 178.976 116.225 175.406 114.146 170.587C112.376 166.486 109.081 160.787 110.392 153.281C111.26 148.314 111.882 145.512 117.906 136.062C118.203 136.11 118.5 136.143 118.795 136.143C120.45 136.143 122.039 135.401 123.005 134.103L143.792 106.167C143.835 106.108 143.878 106.048 143.919 105.988L147.692 100.383L185.198 65.1484L186.775 63.6673C187.264 63.2064 187.227 62.4905 186.691 62.0753ZM67.0437 155.472C65.3977 156.765 61.5484 158.604 57.9128 158.604C55.8678 158.604 53.8903 158.022 52.4102 156.434C46.8071 150.425 52.8165 141.537 55.771 139.217C57.1718 138.116 59.6004 137.083 62.301 137.082C64.8017 137.082 67.535 137.968 69.9038 140.508C71.8658 142.612 77.054 147.609 67.0437 155.472ZM78.0903 146.023C77.9023 142.202 75.6171 139.455 74.2862 138.011C74.7406 138.029 75.2027 138.039 75.6725 138.039C78.8525 138.039 81.9661 137.578 84.9277 136.67C87.1757 135.981 89.0764 135.365 91.1473 134.42L78.0903 146.023ZM106.764 146.545C106.086 148.574 105.733 150.393 105.358 152.54C104.691 156.356 105.016 159.785 105.742 162.774C104.169 161.9 101.456 160.496 97.9063 160.496C97.3116 160.496 96.7249 160.534 96.1456 160.611L106.764 146.545ZM107.181 179.334C105.645 181.662 100.199 186.275 94.4573 186.275C92.8494 186.275 91.2181 185.914 89.6435 185.038C84.3609 182.103 86.6189 174.544 88.3312 171.948C91.8291 166.647 95.1641 165.174 97.9063 165.174C100.388 165.174 102.384 166.379 103.581 167.045C109.909 170.561 108.976 176.612 107.181 179.334Z" fill="#F0C061"/>
</g>
<path d="M107 108.673L111.193 103L117.22 109.452L120.627 115.903L124.034 122.355L129.144 128.806L134.254 133.645L161.508 157.839L130.847 136.871L122.331 130.419L117.22 123.968L107 108.673Z" fill="white"/>
<path d="M126 105L125.5 108.5L129 110.5L132.5 108.5V105L129 103L126 104.5" stroke="white"/>
<defs>
<filter id="filter0_d_15_2" x="39.5" y="44.5" width="92.7627" height="85.1936" filterUnits="userSpaceOnUse" color-interpolation-filters="sRGB">
<feFlood flood-opacity="0" result="BackgroundImageFix"/>
<feColorMatrix in="SourceAlpha" type="matrix" values="0 0 0 0 0 0 0 0 0 0 0 0 0 0 0 0 0 0 127 0" result="hardAlpha"/>
<feOffset dy="4"/>
<feGaussianBlur stdDeviation="2"/>
<feComposite in2="hardAlpha" operator="out"/>
<feColorMatrix type="matrix" values="0 0 0 0 0 0 0 0 0 0 0 0 0 0 0 0 0 0 0.25 0"/>
<feBlend mode="normal" in2="BackgroundImageFix" result="effect1_dropShadow_15_2"/>
<feBlend mode="normal" in="SourceGraphic" in2="effect1_dropShadow_15_2" result="shape"/>
</filter>
<filter id="filter1_d_15_2" x="27" y="46" width="163.119" height="148.161" filterUnits="userSpaceOnUse" color-interpolation-filters="sRGB">
<feFlood flood-opacity="0" result="BackgroundImageFix"/>
<feColorMatrix in="SourceAlpha" type="matrix" values="0 0 0 0 0 0 0 0 0 0 0 0 0 0 0 0 0 0 127 0" result="hardAlpha"/>
<feOffset dx="3" dy="3"/>
<feComposite in2="hardAlpha" operator="out"/>
<feColorMatrix type="matrix" values="0 0 0 0 0.694118 0 0 0 0 0.0901961 0 0 0 0 0.0196078 0 0 0 1 0"/>
<feBlend mode="normal" in2="BackgroundImageFix" result="effect1_dropShadow_15_2"/>
<feBlend mode="normal" in="SourceGraphic" in2="effect1_dropShadow_15_2" result="shape"/>
</filter>
</defs>
</svg>
