<svg width="1486" height="1041" fill="none" xmlns="http://www.w3.org/2000/svg"><path d="M912.909 294.867h-.171c-3.126-.017-6.065.407-8.58 1.127-1.719.492-3.048 1.064-4.014 1.581v113.884c0 19.883-16.118 36-36 36-283.217 0-444.038 82.436-533.538 160.806-19.082 16.709-35.077 33.367-48.428 49.21 166.339-79.321 310.413-100.044 415.226-100.044 54.871 0 98.811 5.68 129.371 11.478 15.281 2.899 27.228 5.83 35.535 8.099 4.154 1.134 7.4 2.104 9.701 2.823a165.486 165.486 0 013.565 1.157l.118.04.16.055.104.036.044.015.019.007c.01.003.019.007-11.877 33.984l11.896-33.977a36 36 0 0124.104 33.977v120.167c.973.522 2.309 1.096 4.032 1.588 2.513.716 5.452 1.138 8.579 1.12h.206c3.033 0 5.871-.436 8.27-1.15 2.41-.718 3.936-1.584 4.698-2.138l.333-.239 311.248-220.817-311.332-215.34-.257-.18c-.824-.58-2.394-1.439-4.805-2.142l-.011-.003c-2.391-.698-5.199-1.122-8.196-1.124zM895.18 740.106l-16.716 24.061 16.716-24.061zM65.751 729.047c.042-.146.084-.292.128-.437 2.339-7.801 33.504-111.208 149.164-212.646 67.512-59.32 151.951-106.931 246.995-140.082 84.165-29.412 177.719-48.236 279.036-56.516v-26.312c-.153-20.24 5.728-39.637 16.314-56.809 10.532-17.087 25.366-31.439 42.67-42.718 31.928-20.963 72.326-31.681 112.88-31.656 41.706-.012 83.275 11.468 115.412 33.883.02.016.05.033.07.049l353.49 244.46v.001c11.71 8.101 21.98 18.384 29.42 30.745v.005c7.5 12.461 11.86 26.628 12 41.552.13 14.931-3.97 29.185-11.29 41.78-7.25 12.492-17.38 22.917-29 31.157v.004l-353.03 250.381-.09.06c-16.13 11.552-34.781 20.314-54.667 26.173l-.004.001c-19.932 5.87-41.085 8.825-62.284 8.813-40.538.027-80.916-10.667-112.859-31.582-17.286-11.265-32.103-25.59-42.64-42.637l-.004-.006c-10.591-17.141-16.502-36.512-16.388-56.738v-47.803a533.661 533.661 0 00-43.588-1.681h-.082c-95.159 0-249.576 23.042-435.481 137.012-19.257 11.811-42.125 18.463-65.268 20.048l-.004.001c-23.184 1.585-46.896-1.894-68.049-10.468l-.002-.001c-21.022-8.522-40.113-22.382-52.463-41.531l-.005-.007c-12.712-19.709-17.008-43.329-10.38-66.495z" fill="#FCCA05" stroke="#000" stroke-width="72" stroke-linejoin="round"/></svg>