<svg id="Layer_1" version="1.1" viewBox="0 0 30 30" xml:space="preserve" xmlns="http://www.w3.org/2000/svg"><style>.st1{opacity:.33;fill:#b5e7fe}.st2,.st4,.st5{fill:#fff}</style><path d="M456.389 198.592s-1.19-1.19-4.212 0c0 0-5.861-5.448-11.538 1.282 0 0-8.012-.183-7.6 7.417 0 0-9.478 5.54.504 10.027 0 0 4.395 6.685 10.256 1.557 0 0 7.509 5.586 10.256-.824 0 0 6.227 7.326 9.981.275 0 0 6.685 6.501 11.629-.641 0 0 12.091 4.53 11.355-9.731 0 0-2.198-4.005-5.036-3.73 0 0-1.74-9.615-8.791-7.142 0 0-8.516-4.212-12.362 1.19-.001 0-3.449-.166-4.442.32z" fill="#2cc0fe"/><path class="st1" d="M462.395 200.646s4.891-6.325 9.298 0c0 0 6.838-2.806 8.459 4.196.101.435 0 1.786 0 1.786s3.022-.069 4.739 2.335c0 0 1.648 8.104-8.104 7.211 0 0 .036-.57-2.974 2.383l1.852-.873s7.917 3.022 11.387-4.327c0 0 1.959-6.387-4.359-9.134 0 0-2.083-9.546-10.382-7.005 0 0-6.444-4.876-11.046.893 0 0-2.678 1.292.824 2.535m-8.069 1.159s-5.002-7.52-9.409-.939c0 0-6.726-1.981-8.348 5.305-.101.453 0 1.858 0 1.858s-3.421-.391-4.229 2.533c-.807 2.918-.129 6.035 9.658 6.478.88.04 5.185.973.911 3.402 0 0-.538-.348-.739-.414-3.054-1.017-7.005-.927-11.69-5.391 0 0-.932-5.626 3.62-7.978 0 0-.137-7.337 10.31-8.421 0 0 .61-4.583 13.693.98 0 0 .031 1.293-3.471 2.586"/><ellipse class="st1" cx="468.287" cy="202.789" rx="11.538" ry="6.288"/><path class="st1" d="M453.524 203.267c-2.015 1.899-4.165 5.453-9.304 5.453s-9.304-2.441-9.304-5.453c0-1.815 2.792-2.729 5.723-4.033 1.934-.86 3.635-2.503 5.677-2.503 5.139-.001 9.763 4.128 7.208 6.536z"/><path d="M486.513 206.083c-.927-1.055-1.867-1.767-2.96-2.242a7.056 7.056 0 00-.607-.229c-.564-2.941-1.856-5.064-3.85-6.311-1.912-1.199-3.968-1.531-6.076-.942a8.5 8.5 0 00-2.462-1.595c-2.402-1.011-5.142-.754-7.522.696-.266.163-.522.34-.723.502a7.107 7.107 0 00-1.893 1.959 9.036 9.036 0 00-1.685-.047 5.723 5.723 0 00-1.069.183c-1.679-.891-3.461-1.122-5.28-.618a8.166 8.166 0 00-2.346-1.515c-2.303-.969-4.936-.725-7.224.669a6.813 6.813 0 00-.693.48 6.819 6.819 0 00-1.805 1.864 8.586 8.586 0 00-1.594-.043c-1.002.061-1.988.403-3.103 1.074-1.453.876-2.538 2.413-3.138 4.448a7.132 7.132 0 00-.27 2.242c-1.261.403-2.368 1.195-3.112 2.244-1.852 2.614-1.579 6.073.635 8.046 1.068.952 2.462 1.451 3.98 1.372.954 1.484 2.315 2.565 3.803 3.004 1.287.378 2.42.45 3.469.221a6.922 6.922 0 003.152-1.599c1.374 1.15 3.248 1.805 5.119 1.805.403 0 .806-.03 1.204-.093 1.572-.247 3.051-.961 4.279-2.065.812.786 1.741 1.383 2.74 1.676 1.34.395 2.522.471 3.61.231a7.174 7.174 0 003.307-1.687c1.434 1.212 3.397 1.902 5.359 1.902.421 0 .839-.031 1.253-.097 1.919-.3 3.696-1.269 5.069-2.754 2.938 1.219 6.466.786 8.812-1.141 1.803-1.479 2.994-3.512 3.271-5.579.309-2.306-.292-4.514-1.65-6.061zm-36.323 13.839c-1.926.297-4-.348-5.421-1.802-.171-.181-.476-.215-.724-.206-.249.005-.548.187-.711.376-.798.818-1.663 1.306-2.721 1.539-.752.163-1.602.1-2.597-.191-1.208-.356-2.323-1.327-3.057-2.666a.858.858 0 00-.895-.447c-1.183.17-2.334-.153-3.157-.889-1.76-1.569-1.504-4.116-.371-5.716.631-.89 1.642-1.518 2.774-1.727a.88.88 0 00.713-.98c-.106-.811-.056-1.605.149-2.3.329-1.119 1.007-2.625 2.359-3.438.863-.52 1.595-.782 2.303-.825a6.923 6.923 0 011.775.113.874.874 0 00.953-.464c.355-.695.898-1.313 1.611-1.815.179-.141.365-.27.559-.388 1.801-1.097 3.853-1.298 5.628-.55a6.43 6.43 0 012.15 1.497c.239.252.7.305 1.024.188a5.04 5.04 0 012.865-.152c-1.453.923-2.548 2.484-3.157 4.548a7.456 7.456 0 00-.28 2.364c-1.324.416-2.487 1.245-3.265 2.344-1.926 2.717-1.643 6.314.659 8.366 1.116.995 2.61 1.491 4.158 1.424.03.048.069.086.1.133-.009.008-.021.01-.03.018-.98.881-2.153 1.451-3.394 1.646zm36.23-8.011c-.219 1.631-1.183 3.255-2.644 4.454-1.987 1.628-5.084 1.896-7.527.642a.88.88 0 00-1.088.233c-1.15 1.437-2.721 2.375-4.421 2.642-2.045.313-4.217-.367-5.713-1.899-.157-.167-.429-.204-.665-.204l-.062.001c-.251.006-.552.191-.715.381-.843.864-1.756 1.379-2.869 1.623-.792.174-1.689.108-2.737-.201-1.275-.374-2.451-1.398-3.225-2.809a.87.87 0 00-.895-.447c-1.257.175-2.468-.164-3.336-.938-1.86-1.659-1.591-4.349-.394-6.038.665-.939 1.733-1.604 2.928-1.823a.88.88 0 00.713-.981c-.114-.853-.059-1.691.157-2.422.347-1.178 1.06-2.763 2.487-3.624.906-.546 1.677-.822 2.428-.868a7.013 7.013 0 011.867.118.869.869 0 00.953-.463c.376-.734.949-1.386 1.7-1.914.187-.148.382-.284.588-.409 1.897-1.155 4.056-1.367 5.926-.578a6.707 6.707 0 012.262 1.575c.238.251.702.3 1.03.188 1.661-.588 3.385-.367 4.996.643 1.663 1.043 2.721 2.946 3.142 5.654a.88.88 0 00.67.721c.298.07.592.164.878.288.856.372 1.577.924 2.337 1.79 1.023 1.162 1.472 2.863 1.229 4.665z"/><path class="st2" d="M12.912 8.286s-.249-6.301 5.559-4.789c0 0-3.115-2.934-5.561-.234.001 0-2.363 2.492.002 5.023z"/><path d="M22.434 8.972s-1.068 7.395-4.672 9.349c0 0-4.318.71-6.17-4.891l-.826-2.65-1.388-.648s-1.785-1.649.393-3.952c0 0-1.392-4.294 3.738-3.641 0 0 2.548-.902 3.03-1.867l2.224 1.369s1.742.871 2.116 2.303c0 0 3.161-.533 3.292 1.974-.001 0 .223 1.618-1.737 2.654z" fill="#fff"/><path class="st4" d="M19.587 17.102c.311-.311 1.525-3.578 4.761-2.303l-4.45 2.707-.311-.404z"/><path class="st5" d="M24.17 14.268l-4.85 2.694s2.647-2.905 4.85-2.694z"/><path class="st4" d="M13.508 17.117c-.286-.224-1.607-2.779-4.131-1.411l3.916 1.773.215-.362z"/><path class="st5" d="M9.47 15.252l4.243 1.723s-2.46-2.116-4.243-1.723z"/><path class="st4" d="M16.661 18.321c-.14-.382-1.616-1.252-.511-4.457l1.183 4.338-.672.119z"/><path class="st5" d="M17.163 18.014l-1.051-4.028s2.073 2.238 1.051 4.028zm-2.259 6.162s.996-4.065-3.153-6.015l-1.867-.373-.507.373-1.236-.285-.29.705-.913-.171-.581.17-.871.576s-.166.415-.29.415h-1.12l-.456.29-1.08.083h-.83l1.66 1.805.788.519.042.331 1.535.916.041.66.871.373.29.249.664.484h.207l.083.374.871.304c.002.001 4.067-.165 6.142-1.783z"/><path class="st4" d="M14.738 23.885s-3.485-.913-4.647-.747c0 0-3.745-.851-4.972-2.356l-2.911-.573 2.78 3.054s2.661 3.402 6.454 2.697c0 0 2.342-.457 3.296-2.075z"/><path class="st5" d="M27.62 17.963l-9.667 6.172c0-.001-2.384-7.117 9.667-6.172z"/><path class="st4" d="M28.035 17.788s-2.572 9.375-9.729 6.45l-.643.166.29-.27 10.268-6.627-.186.281z"/><path class="st2" d="M13.049 8.029s5.926 2.156 6.255-3.837c0 0 1.846 3.86-1.471 5.368 0 0-3.094 1.492-4.784-1.531z"/><path d="M11.056 11.712l-.29-.932s3.392 2.024 3.703 5.853c0 0 .156.718-.311.874-.001 0-3.154-4.059-3.102-5.795z" opacity=".3" fill="#aa151d"/><path d="M21.39 11.662l.182-.959S18.433 13.1 18.56 16.94c0 0-.073.731.409.832 0 .001 2.67-4.392 2.421-6.11z" opacity=".45" fill="#aa151d"/><ellipse cx="16.538" cy="6.588" rx="5.034" ry="3.334" opacity=".19" fill="#fff"/><path d="M28.405 17.13a.354.354 0 00-.401-.016c-.375.242-1.784.328-3.027.403-1.162.071-2.363.144-3.165.342-1.836.455-3.117 1.32-3.808 2.57-.791 1.435-.566 2.931-.425 3.536-.335.183-.666.354-.993.517.476-1.912.886-4.026.936-5.749a.322.322 0 00.142-.079c.963-.004 2.323-.847 3.848-1.793 1.424-.882 3.192-1.978 3.782-1.636a.348.348 0 00.358-.598c-1.101-.676-2.179-.89-3.21-.632a3.813 3.813 0 00-1.097.472c.205-.574.353-1.147.466-1.67.329-1.514.981-3.296 1.184-3.835.192-.11.37-.23.545-.364.992-.765 1.138-1.641 1.085-2.241-.1-1.15-.967-2.003-1.489-2.27-.57-.292-1.394-.256-2.069-.151-.309-.709-.827-1.534-1.645-1.926a.338.338 0 00-.083-.028c-.92-.183-2.009-1.309-2.367-1.679l-.045-.046a.36.36 0 00-.494-.007c-1.631 1.478-2.421 1.904-2.855 2.022l-.048.022a.114.114 0 01-.019-.01c-.805-.396-2.644-.672-3.867 1.109-.467.68-.611 1.498-.417 2.365.033.137.072.272.119.407-.564.554-.869 1.54-.921 2.343-.081 1.227.394 2.093 1.269 2.317.228.058.462.115.7.17.169.419.536 1.356.981 2.627.13.371.289.825.497 1.303a2.918 2.918 0 00-.922-.235c-.954-.079-1.899.328-2.817 1.208a.35.35 0 00.479.507c.482-.457 2.537.441 4.035 1.094 1.523.664 2.899 1.264 3.85 1.264.121 0 .222-.03.329-.05-.048 1.639-.446 3.684-.909 5.552a7.119 7.119 0 00-.723-.48c.706-4.166-3.527-5.812-3.538-5.812-.426-.242-1.684-.577-1.826-.615a.351.351 0 00-.436.306l-.508-.051c-.487-.12-.856-.058-1.09.176a.732.732 0 00-.172.268c-.372-.053-.715.08-.888.162-.629.016-1.072.187-1.319.509a.923.923 0 00-.179.398l-1.344.153a.349.349 0 00-.277.199l-.047.097c-.303.098-1.084.056-1.702-.055a.35.35 0 00-.352.536c.7 1.053 1.697 1.929 2.187 2.328a.357.357 0 00.056.224c.261.395 1.021.94 1.537 1.284a.349.349 0 00.037.368c.225.29.647.489.991.613a.356.356 0 00.06.103c.229.271.667.461 1.041.581-.012.041-.016.086-.012.129a.35.35 0 00.188.277c.253.129.526.175.766.183.054.054.126.09.206.1l.35.041c.326.05.647.072.959.072 2.815 0 4.98-1.793 5.099-1.892.248.151.497.319.747.525a66.097 66.097 0 01-1.318 4.391.348.348 0 00.658.229 64.27 64.27 0 001.294-4.265c.03-.005.06-.006.089-.02a29.671 29.671 0 001.536-.79c.946.55 1.882.758 2.731.758 2.008 0 3.533-1.084 3.558-1.103 2.792-2.173 4.19-6.496 4.248-6.679a.348.348 0 00-.119-.383zM9.278 25.629a.346.346 0 00-.419-.228 1.862 1.862 0 01-.401.047.351.351 0 00-.274-.416 4.627 4.627 0 01-.913-.282.348.348 0 00-.269-.407 3.83 3.83 0 01-.738-.251.35.35 0 00-.112-.484c-.474-.29-1.232-.805-1.616-1.17a.349.349 0 00-.125-.389c-.012-.009-.997-.739-1.83-1.739.513.039 1.111.025 1.439-.18a.35.35 0 00.131-.149l1.471-.2a.356.356 0 00.3-.427c-.002-.012-.021-.118.054-.211.116-.143.425-.227.845-.229a.382.382 0 00.168-.044c.077-.04.473-.233.744-.048a.347.347 0 00.535-.369c-.008-.036-.01-.144.019-.173.021-.021.143-.062.48.016l.982.102a.327.327 0 00.285-.102.362.362 0 00.083-.136c.472.137 1.015.314 1.245.44.157.058 3.62 1.397 3.182 4.85a6.766 6.766 0 00-2.03-.552l-1.889-2.147a.348.348 0 00-.524.461l1.432 1.627a13.061 13.061 0 01-2.712-.442l-1.463-1.999a.346.346 0 00-.487-.075.348.348 0 00-.075.487l.876 1.197c-1.393-.569-2.049-1.21-2.06-1.221a.348.348 0 00-.498.488c.049.05.745.741 2.208 1.352l-.713.116a.349.349 0 00.112.689l1.991-.324c.006-.001.011-.006.017-.007.648.174 1.39.314 2.23.394l-1.88.826a.349.349 0 00.28.638l3.105-1.364c.456.048 1.11.182 1.84.512-.648.471-2.665 1.765-5.026 1.523zm7.974-7.931l-.008.003a.32.32 0 00-.085.011c-.135.019-.26.016-.391.024-.265-.689-.559-1.859-.609-3.021.535.71 1.22 1.872 1.093 2.983zm3.151-1.334c.008-.013.802-1.342 2.208-1.693a2.918 2.918 0 011.426.009c-.83.31-1.82.924-2.892 1.589-.492.305-1.023.632-1.533.919a5.39 5.39 0 00.644-.694.342.342 0 00.147-.13zm.728-3.715c-.365 1.684-1.103 3.913-3.165 4.798a3.84 3.84 0 00-.204-1.229c.002-.004.006-.006.008-.011.347-1.044.215-2.378.101-3.109.025-.02.051-.039.07-.066.667-.959 2.59-3.295 4.225-3.833-.288.799-.766 2.207-1.035 3.45zM16.664.982c.666.669 1.583 1.472 2.494 1.674.733.374 1.172 1.283 1.37 1.797.06.157.219.249.391.217.842-.163 1.534-.151 1.901.037.406.208 1.041.896 1.112 1.71.054.621-.221 1.169-.817 1.629a4.092 4.092 0 01-.553.359 2.884 2.884 0 00-.565.117c.168-.779.092-1.463-.237-2.036-.516-.897-1.483-1.243-1.918-1.358a4.047 4.047 0 00-.311-.88c-.587-1.165-1.56-1.991-2.736-2.327a4.153 4.153 0 00-1.076-.143c.292-.232.604-.494.945-.796zm-.754 8.373c-.609-.174-1.111-.599-1.414-1.2-.486-.962-.149-2.192.749-2.741.317-.194.68-.246 1.023-.149.356.101.65.351.827.704.282.559.088 1.273-.433 1.591a.7.7 0 01-.555.082.735.735 0 01-.452-.386c-.149-.296-.044-.687.23-.855a.314.314 0 01.374.025.349.349 0 00.449-.534 1.006 1.006 0 00-1.187-.086c-.581.355-.8 1.146-.489 1.763.187.37.5.633.882.742.374.108.77.052 1.11-.157.823-.503 1.133-1.625.691-2.5a2.029 2.029 0 00-1.259-1.06 1.96 1.96 0 00-1.577.225c-1.201.734-1.653 2.371-1.008 3.65.01.02.025.036.036.056-1.15-.83-1.759-1.711-1.796-2.628-.057-1.394 1.194-2.528 1.643-2.89.889-.537 1.898-.686 2.846-.415.988.282 1.807.982 2.305 1.971.803 1.593.246 3.628-1.244 4.538a2.191 2.191 0 01-1.751.254zm-5.689-5.566c.581-.847 1.335-1.1 1.972-1.1.28 0 .519.056.73.125-.644.611-1.561 1.723-1.506 3.108.035.887.471 1.726 1.287 2.51-1.558-.898-2.483-2.113-2.632-2.32a3.422 3.422 0 01-.163-.506c-.151-.673-.043-1.301.312-1.817zM9.12 8.553c.045-.688.288-1.353.604-1.749.718.894 2.941 3.258 6.417 3.302h.005c.023 0 .043-.009.064-.013.097.01.193.041.29.041.528 0 1.053-.149 1.529-.439 1.301-.795 2.003-2.303 1.925-3.8.379.141.904.418 1.203.938.305.531.302 1.225.009 2.056-1.563.885-3.017 2.695-3.567 3.43-2.849-2.391-6.373-2.051-6.932-1.979a33.723 33.723 0 01-.8-.192c-.525-.133-.804-.729-.747-1.595zM11.146 11c1.046-.06 3.753-.001 5.972 1.839.066.336.231 1.334.149 2.285a8.425 8.425 0 00-1.191-1.588.348.348 0 00-.594.216c-.122 1.396.204 2.969.545 3.972-.142-.014-.288-.019-.422-.049-2.247-.489-3.11-2.958-3.573-4.285a65.984 65.984 0 00-.886-2.39zm-1.502 4.65c.418-.21.832-.301 1.243-.266.949.074 1.607.788 1.755.963.139.204.293.401.46.589l-.176-.076c-1.241-.542-2.383-1.039-3.282-1.21zm14.216 7.984c-.027.018-2.53 1.742-5.156.499.51-.294 1.019-.6 1.518-.91.233-.045 1.844-.323 3.098.165a.35.35 0 00.253-.65c-.684-.266-1.439-.332-2.08-.326.343-.224.677-.445.994-.659.006-.001.012.003.019.001.017-.005 1.607-.354 2.59.114a.346.346 0 00.464-.164.347.347 0 00-.164-.464c-.525-.252-1.159-.315-1.715-.308 1.19-.833 1.981-1.429 2.001-1.444a.35.35 0 00.067-.489.35.35 0 00-.489-.067c-.019.014-.733.554-1.825 1.322.198-.412.382-.841.462-1.168a.347.347 0 00-.256-.421.35.35 0 00-.421.256c-.155.631-.797 1.798-1.014 2.182-.355.241-.733.491-1.122.745.303-.58.616-1.241.725-1.69a.348.348 0 10-.677-.165c-.183.749-1.074 2.29-1.28 2.64-.536.333-1.083.66-1.631.973-.109-.606-.201-1.766.398-2.847.594-1.071 1.725-1.818 3.361-2.224.741-.184 1.91-.255 3.04-.323 1.018-.062 1.943-.118 2.601-.251-.5 1.286-1.773 4.126-3.761 5.673z"/></svg>